<?xml version="1.0" encoding="UTF-8"?>
<!-- Generator: visioncortex VTracer 0.6.3 -->
<svg version="1.1" xmlns="http://www.w3.org/2000/svg" width="1280" height="836">
<path d="M0 0 C0.76 0.21 1.53 0.41 2.31 0.62 C2.31 0.29 2.31 -0.03 2.31 -0.38 C33.77 -0.65 33.77 -0.65 38.31 1.62 C38.36 26.76 38.39 51.89 38.42 77.02 C38.43 88.69 38.44 100.36 38.46 112.03 C38.48 122.21 38.5 132.39 38.5 142.56 C38.5 147.95 38.51 153.33 38.52 158.71 C38.54 163.79 38.54 168.87 38.54 173.95 C38.54 175.81 38.54 177.66 38.55 179.51 C38.6 190.98 38.23 202.29 36.31 213.62 C35.98 213.96 35.65 214.28 35.31 214.62 C35.11 216.31 34.93 218 34.75 219.69 C32.39 234.27 23.35 248.08 12.06 257.38 C9.37 259.26 8.7 259.64 5.31 259.5 C4.65 259.21 3.99 258.92 3.31 258.62 C3.81 260.11 3.81 260.11 4.31 261.62 C-7.11 267.1 -19.98 271.25 -32.69 268.62 C-33.35 268.3 -34.01 267.96 -34.69 267.62 C-34.69 266.96 -34.69 266.31 -34.69 265.62 C-35.78 265.83 -36.87 266.04 -38 266.25 C-41.69 266.62 -41.69 266.62 -44.69 264.62 C-45.86 264.23 -47.04 263.84 -48.25 263.44 C-53.57 261.49 -58.59 258.54 -62.69 254.62 C-63.55 252.02 -63.55 252.02 -63.69 249.62 C-62.5 247.62 -62.5 247.62 -60.69 245.62 C-59.97 244.72 -59.24 243.81 -58.5 242.88 C-57.6 241.76 -57.6 241.76 -56.69 240.62 C-51.66 242.13 -47.2 244.28 -42.56 246.69 C-41.17 247.41 -39.77 248.13 -38.37 248.85 C-37.76 249.16 -37.14 249.48 -36.52 249.81 C-30.61 252.44 -24 252.42 -17.69 251.62 C-14.54 250.27 -11.8 248.72 -8.93 246.84 C-8.19 246.44 -7.45 246.04 -6.69 245.62 C-5.7 245.96 -4.71 246.28 -3.69 246.62 C-3.07 245.97 -2.45 245.31 -1.81 244.62 C0.31 242.62 0.31 242.62 2.31 242.62 C2.64 241.63 2.97 240.64 3.31 239.62 C4.3 239.29 5.29 238.97 6.31 238.62 C7.67 236.98 9.01 235.31 10.31 233.62 C10.97 233.29 11.63 232.97 12.31 232.62 C12.97 230.1 12.97 230.1 13.31 227.62 C13.97 227.62 14.63 227.62 15.31 227.62 C15.44 226.39 15.56 225.15 15.69 223.88 C16.07 220.68 16.83 218.48 18.31 215.62 C18.48 212.96 18.48 212.96 18.31 210.62 C18.97 210.62 19.63 210.62 20.31 210.62 C20.3 210.03 20.29 209.44 20.28 208.83 C20.27 208.04 20.26 207.25 20.25 206.44 C20.24 205.66 20.23 204.88 20.21 204.08 C20.31 201.62 20.31 201.62 20.81 199.43 C21.42 196 21.44 192.75 21.43 189.27 C21.43 188.54 21.43 187.8 21.44 187.05 C21.44 184.61 21.43 182.16 21.43 179.72 C21.43 177.96 21.43 176.21 21.43 174.45 C21.43 169.69 21.42 164.93 21.41 160.17 C21.41 155.2 21.41 150.22 21.41 145.25 C21.4 135.83 21.39 126.41 21.38 116.99 C21.37 106.26 21.37 95.54 21.36 84.81 C21.35 62.75 21.33 40.69 21.31 18.62 C18.01 18.3 14.71 17.97 11.31 17.62 C11.31 18.45 11.31 19.27 11.32 20.12 C11.34 40.23 11.35 60.34 11.36 80.45 C11.37 90.18 11.38 99.9 11.39 109.63 C11.4 118.11 11.4 126.59 11.41 135.08 C11.41 139.56 11.41 144.05 11.42 148.53 C11.43 152.77 11.43 157.01 11.43 161.25 C11.43 162.79 11.43 164.33 11.43 165.87 C11.45 174.05 11.3 182.2 10.87 190.38 C10.83 191.13 10.79 191.88 10.75 192.65 C10.45 197.83 9.59 202.62 8.31 207.62 C7.97 209.08 7.97 209.08 7.63 210.57 C7.38 211.62 7.13 212.67 6.88 213.75 C6.63 214.8 6.38 215.86 6.13 216.95 C5.31 219.62 5.31 219.62 3.31 221.62 C2.97 222.96 2.64 224.29 2.31 225.62 C1.65 226.62 0.99 227.61 0.31 228.62 C-0.35 228.62 -1.01 228.62 -1.69 228.62 C-2.02 229.62 -2.35 230.61 -2.69 231.62 C-7.42 237.06 -12.57 240.23 -19.8 240.93 C-31.45 240.97 -42.42 237.92 -51.5 230.25 C-53.58 228.37 -53.58 228.37 -56.25 228.62 C-59.15 229.81 -60.63 231.29 -62.69 233.62 C-63.35 234.28 -64.01 234.94 -64.69 235.62 C-64.99 236.23 -65.29 236.84 -65.6 237.47 C-66.85 239.95 -68.39 241.95 -70.12 244.12 C-71.31 245.62 -72.5 247.12 -73.69 248.62 C-74.54 249.68 -74.54 249.68 -75.41 250.75 C-76.92 252.58 -76.92 252.58 -76.69 255.06 C-75.38 258.4 -73.26 260.18 -70.69 262.62 C-70.69 263.29 -70.69 263.94 -70.69 264.62 C-70.15 264.73 -69.62 264.83 -69.06 264.94 C-66.04 265.81 -63.44 267.1 -60.69 268.62 C-60.36 269.29 -60.03 269.94 -59.69 270.62 C-58.06 271.13 -56.42 271.63 -54.77 272.06 C-52.61 272.65 -50.54 273.37 -48.44 274.12 C-39.98 276.91 -31.88 277.81 -23 277.88 C-22.2 277.88 -21.41 277.89 -20.59 277.9 C-15.29 277.88 -10.79 277.02 -5.69 275.62 C-2.19 275.5 -2.19 275.5 0.31 275.62 C0.64 274.96 0.97 274.31 1.31 273.62 C4.14 272 7.13 270.93 10.19 269.81 C14.74 268.03 17.7 265.88 21.31 262.62 C22.3 262.3 23.29 261.96 24.31 261.62 C24.64 260.63 24.97 259.64 25.31 258.62 C26.64 257.62 27.97 256.62 29.31 255.62 C31.79 252.78 33.78 250.07 35.31 246.62 C35.97 246.62 36.63 246.62 37.31 246.62 C39.36 240.8 39.36 240.8 40.88 234.81 C41.35 232.45 42.19 230.75 43.31 228.62 C45.75 223.69 46.18 218.46 46.88 213.06 C47.12 211.19 47.38 209.31 47.63 207.43 C47.74 206.61 47.84 205.78 47.96 204.93 C48.31 202.62 48.31 202.62 48.85 200.52 C49.82 196.55 49.32 192.3 49.25 188.23 C49.31 184.62 49.31 184.62 49.81 181.37 C50.32 177.55 50.44 173.92 50.43 170.06 C50.43 169.33 50.43 168.61 50.44 167.86 C50.44 165.43 50.43 163.01 50.43 160.58 C50.43 158.84 50.43 157.09 50.43 155.35 C50.43 150.62 50.42 145.9 50.41 141.17 C50.41 136.23 50.41 131.29 50.41 126.35 C50.4 116.99 50.39 107.64 50.38 98.29 C50.37 87.64 50.37 76.99 50.36 66.34 C50.35 44.43 50.33 22.53 50.31 0.62 C50.97 0.29 51.63 -0.03 52.31 -0.38 C52.31 0.28 52.31 0.94 52.31 1.62 C52.98 1.53 53.64 1.43 54.32 1.34 C55.21 1.23 56.09 1.11 57 1 C57.87 0.88 58.74 0.77 59.64 0.65 C62.67 0.62 64.55 1.44 67.31 2.62 C67.34 27.21 67.35 51.79 67.36 76.37 C67.37 87.79 67.38 99.2 67.39 110.62 C67.4 120.57 67.4 130.52 67.41 140.47 C67.41 145.74 67.41 151.01 67.42 156.27 C67.43 161.24 67.43 166.2 67.43 171.16 C67.43 172.98 67.43 174.8 67.43 176.61 C67.47 196.77 67.47 196.77 66.31 203.62 C65.98 203.96 65.65 204.28 65.31 204.62 C65.13 205.96 65.01 207.3 64.92 208.64 C64.1 218.88 62.85 227.94 59.31 237.62 C58.77 239.31 58.23 241 57.69 242.69 C56.43 246.53 55.2 249.73 52.31 252.62 C51.84 253.76 51.36 254.89 50.88 256.06 C49.53 259.13 48.8 260.57 46.31 262.62 C44.14 264.66 44.14 264.66 42.31 267.69 C40.23 270.74 39.42 271.07 36.31 272.62 C36.07 273.22 35.82 273.82 35.56 274.44 C33.5 278.05 29.96 279.8 26.31 281.62 C25.32 281.3 24.33 280.96 23.31 280.62 C23.23 281.25 23.14 281.87 23.05 282.51 C22.31 284.62 22.31 284.62 20.66 285.67 C19.6 286.05 19.6 286.05 18.52 286.44 C17.72 286.73 16.92 287.02 16.11 287.32 C14.85 287.75 14.85 287.75 13.56 288.19 C12.77 288.48 11.98 288.77 11.16 289.07 C-0.21 293.11 -11.05 295.15 -23.12 295 C-24.9 294.98 -24.9 294.98 -26.72 294.97 C-43.49 294.66 -59.84 290.44 -73.69 280.62 C-74.37 280.16 -75.06 279.69 -75.77 279.21 C-80.58 275.85 -80.58 275.85 -81.69 273.62 C-83.05 272.79 -83.05 272.79 -84.44 271.94 C-87.77 269.57 -89.44 267.49 -91.61 264.11 C-92.63 262.46 -92.63 262.46 -94.69 261.62 C-94.69 260.96 -94.69 260.31 -94.69 259.62 C-95.68 259.3 -96.67 258.96 -97.69 258.62 C-98.88 256.06 -98.88 256.06 -99.69 253.62 C-95.69 248.62 -95.69 248.62 -93.69 246.25 C-92.07 244.13 -90.87 242.2 -89.62 239.88 C-87.69 236.62 -87.69 236.62 -84.69 235.62 C-84.69 234.97 -84.69 234.31 -84.69 233.62 C-83.7 232.63 -83.7 232.63 -82.69 231.62 C-82.36 230.63 -82.03 229.64 -81.69 228.62 C-81.05 228.34 -80.41 228.05 -79.75 227.75 C-76.96 226.23 -76.82 224.53 -75.69 221.62 C-75.07 221.19 -74.45 220.76 -73.81 220.31 C-71.02 218.09 -70.1 215.61 -68.71 212.37 C-67.69 210.62 -67.69 210.62 -64.69 209.62 C-64.36 208.63 -64.03 207.64 -63.69 206.62 C-63.03 205.97 -62.37 205.31 -61.69 204.62 C-61.36 203.97 -61.03 203.31 -60.69 202.62 C-55.87 203.04 -53.78 205.01 -50.69 208.62 C-50.69 209.28 -50.69 209.94 -50.69 210.62 C-50.03 210.62 -49.37 210.62 -48.69 210.62 C-48.05 211.31 -47.41 211.99 -46.75 212.69 C-40.79 218.92 -33.44 223.07 -24.94 224.06 C-20.45 224 -17.72 222.22 -14.32 219.42 C-11.79 216.63 -11.32 214.3 -10.69 210.62 C-10.36 209.97 -10.03 209.31 -9.69 208.62 C-9.03 208.62 -8.37 208.62 -7.69 208.62 C-8.02 206.64 -8.35 204.66 -8.69 202.62 C-8.03 202.62 -7.37 202.62 -6.69 202.62 C-6.69 201.61 -6.69 200.59 -6.69 199.54 C-6.71 174.8 -6.73 150.07 -6.74 125.33 C-6.74 113.37 -6.75 101.41 -6.76 89.45 C-6.77 79.02 -6.78 68.6 -6.78 58.18 C-6.78 52.65 -6.79 47.13 -6.79 41.61 C-6.8 36.42 -6.8 31.22 -6.8 26.03 C-6.8 24.12 -6.8 22.21 -6.81 20.3 C-6.81 17.7 -6.81 15.1 -6.81 12.5 C-6.81 11.74 -6.81 10.98 -6.82 10.19 C-6.81 7.06 -6.69 4.62 -5.69 1.62 C-2.69 -0.38 -2.69 -0.38 0 0 Z M-59.69 254.62 C-59.03 255.28 -58.37 255.94 -57.69 256.62 C-57.69 255.96 -57.69 255.31 -57.69 254.62 C-58.35 254.62 -59.01 254.62 -59.69 254.62 Z " fill="#F6F6F6" transform="translate(655.6875,181.375)"/>
<path d="M0 0 C1.31 -0 1.31 -0 2.65 -0.01 C5.59 -0.01 8.53 -0 11.47 0 C13.57 0 15.67 0 17.78 -0 C23.5 -0.01 29.22 0 34.93 0.01 C40.91 0.02 46.89 0.02 52.87 0.02 C62.91 0.02 72.94 0.03 82.98 0.04 C94.6 0.06 106.22 0.06 117.83 0.06 C128.99 0.06 140.16 0.07 151.32 0.07 C156.08 0.08 160.83 0.08 165.59 0.08 C171.18 0.08 176.78 0.09 182.38 0.1 C184.44 0.1 186.49 0.1 188.55 0.1 C191.35 0.1 194.16 0.11 196.96 0.11 C197.78 0.11 198.6 0.11 199.45 0.11 C202.7 0.12 205.31 0.21 208.41 1.25 C208.41 113.45 208.41 225.65 208.41 341.25 C135.81 341.25 63.21 341.25 -11.59 341.25 C-11.92 275.91 -12.25 210.57 -12.59 143.25 C-12.92 143.25 -13.25 143.25 -13.59 143.25 C-13.59 100.02 -13.59 56.79 -13.59 12.25 C-13.26 12.25 -12.93 12.25 -12.59 12.25 C-12.59 8.95 -12.59 5.65 -12.59 2.25 C-8.13 0.02 -4.83 -0.03 0 0 Z M-3.59 8.25 C-4.53 11.43 -4.71 14.28 -4.71 17.59 C-4.71 18.68 -4.71 19.77 -4.71 20.89 C-4.71 22.09 -4.7 23.29 -4.7 24.52 C-4.7 25.79 -4.7 27.07 -4.7 28.38 C-4.7 31.91 -4.69 35.44 -4.69 38.98 C-4.68 42.78 -4.68 46.59 -4.68 50.4 C-4.68 57 -4.67 63.6 -4.66 70.2 C-4.65 79.75 -4.64 89.3 -4.64 98.84 C-4.63 114.33 -4.62 129.82 -4.61 145.31 C-4.6 146.24 -4.6 147.17 -4.6 148.12 C-4.6 154.71 -4.59 161.29 -4.59 167.87 C-4.58 175.4 -4.57 182.92 -4.56 190.44 C-4.56 191.37 -4.56 192.3 -4.56 193.25 C-4.55 208.68 -4.54 224.12 -4.53 239.55 C-4.53 249.08 -4.52 258.61 -4.51 268.13 C-4.5 274.65 -4.49 281.18 -4.49 287.7 C-4.49 291.46 -4.49 295.23 -4.48 299 C-4.47 303.07 -4.47 307.15 -4.47 311.23 C-4.47 312.43 -4.46 313.63 -4.46 314.87 C-4.46 315.95 -4.46 317.04 -4.46 318.16 C-4.46 319.1 -4.46 320.04 -4.46 321.01 C-4.59 323.25 -4.59 323.25 -5.59 325.25 C-6 328.21 -6 328.21 -5.59 331.25 C-3.14 333.95 -1.61 334.24 2.05 334.62 C3.54 334.63 5.03 334.62 6.53 334.61 C7.35 334.61 8.18 334.61 9.02 334.62 C11.79 334.62 14.55 334.6 17.32 334.59 C19.3 334.59 21.28 334.59 23.26 334.59 C28.64 334.59 34.03 334.57 39.41 334.55 C45.03 334.53 50.65 334.53 56.28 334.53 C66.93 334.52 77.58 334.49 88.22 334.46 C100.35 334.43 112.47 334.41 124.59 334.4 C149.53 334.37 174.47 334.31 199.41 334.25 C200.4 326.88 200.55 319.67 200.54 312.24 C200.54 310.95 200.54 309.66 200.54 308.34 C200.54 304.78 200.54 301.22 200.53 297.66 C200.53 293.81 200.53 289.96 200.53 286.12 C200.53 279.46 200.53 272.8 200.52 266.14 C200.51 256.52 200.51 246.89 200.51 237.27 C200.51 221.65 200.5 206.03 200.49 190.41 C200.48 175.24 200.47 160.08 200.47 144.91 C200.47 143.97 200.47 143.04 200.47 142.07 C200.47 137.38 200.47 132.69 200.47 127.99 C200.45 89.08 200.44 50.16 200.41 11.25 C199.75 11.25 199.09 11.25 198.41 11.25 C198.08 10.59 197.75 9.93 197.41 9.25 C196.61 9.26 195.8 9.27 194.97 9.28 C193.9 9.29 192.83 9.3 191.73 9.31 C190.14 9.33 190.14 9.33 188.53 9.34 C185.69 9.26 183.18 8.8 180.41 8.25 C180.08 8.58 179.75 8.91 179.41 9.25 C177.7 9.35 175.99 9.38 174.27 9.38 C173.17 9.38 172.07 9.38 170.94 9.39 C169.15 9.38 169.15 9.38 167.31 9.38 C166.09 9.38 164.86 9.38 163.6 9.38 C160.33 9.38 157.06 9.38 153.79 9.37 C150.49 9.37 147.19 9.38 143.89 9.38 C141.36 9.38 138.84 9.38 136.31 9.38 C135.13 9.38 133.94 9.38 132.72 9.39 C123.5 9.36 123.5 9.36 119.23 8.68 C116.47 7.98 116.47 7.98 114.41 9.25 C111.88 9.35 109.38 9.39 106.85 9.38 C106.11 9.38 105.36 9.38 104.59 9.38 C103.01 9.38 101.43 9.38 99.85 9.38 C97.42 9.37 95 9.38 92.58 9.38 C91.05 9.38 89.51 9.38 87.98 9.38 C87.25 9.38 86.52 9.38 85.77 9.39 C80.64 9.36 80.64 9.36 78.41 8.25 C75.82 8.15 73.25 8.12 70.66 8.13 C69.86 8.13 69.06 8.13 68.24 8.13 C65.58 8.13 62.93 8.14 60.28 8.15 C58.45 8.15 56.61 8.15 54.78 8.15 C49.94 8.16 45.1 8.17 40.27 8.18 C35.33 8.19 30.4 8.19 25.47 8.2 C15.78 8.21 6.1 8.23 -3.59 8.25 Z " fill="#F6F6F6" transform="translate(541.5850982666016,157.7527618408203)"/>
<path d="M0 0 C7.28 6.8 10.28 14.75 10.69 24.7 C10.56 27.46 10.56 27.46 9.56 29.46 C5.75 29.49 1.93 29.5 -1.88 29.52 C-2.97 29.53 -4.06 29.54 -5.18 29.54 C-6.21 29.55 -7.25 29.55 -8.31 29.55 C-9.27 29.56 -10.23 29.57 -11.22 29.57 C-13.44 29.46 -13.44 29.46 -14.44 28.46 C-14.71 26.83 -14.96 25.21 -15.19 23.58 C-15.93 19.48 -15.93 19.48 -18.69 16.46 C-19.6 16.13 -20.51 15.8 -21.44 15.46 C-22.43 15.04 -23.42 14.63 -24.44 14.21 C-27.7 13.39 -29.23 13.67 -32.44 14.46 C-34.77 14.5 -37.11 14.5 -39.44 14.46 C-39.11 15.45 -38.78 16.44 -38.44 17.46 C-38.44 18.78 -38.44 20.1 -38.44 21.46 C-34.81 24.78 -31.14 25.92 -26.44 27.27 C-12.28 31.41 1.79 38.62 9.81 51.46 C13.07 60.15 11.81 68.1 8.56 76.46 C7.57 76.46 6.58 76.46 5.56 76.46 C5.89 77.45 6.22 78.44 6.56 79.46 C5.57 79.95 5.57 79.95 4.56 80.46 C3.9 80.13 3.24 79.8 2.56 79.46 C2.89 80.45 3.22 81.44 3.56 82.46 C-0.37 86.25 -4.19 87.48 -9.33 88.84 C-11.41 89.26 -11.41 89.26 -12.44 90.46 C-26.6 92.91 -42.86 92.5 -55.44 84.71 C-56.43 83.96 -57.42 83.22 -58.44 82.46 C-58.11 81.47 -57.78 80.48 -57.44 79.46 C-58.59 79.33 -58.59 79.33 -59.77 79.2 C-62.44 78.46 -62.44 78.46 -63.99 76.81 C-67.43 70.62 -68.87 64.58 -68.44 57.46 C-66.44 55.46 -66.44 55.46 -64.19 55.23 C-63.28 55.24 -62.37 55.25 -61.43 55.26 C-59.95 55.27 -59.95 55.27 -58.45 55.28 C-56.9 55.31 -56.9 55.31 -55.32 55.33 C-53.76 55.35 -53.76 55.35 -52.16 55.36 C-49.59 55.38 -47.02 55.42 -44.44 55.46 C-43.79 56.89 -43.15 58.33 -42.5 59.77 C-42.14 60.57 -41.78 61.37 -41.41 62.2 C-40.44 64.46 -40.44 64.46 -39.44 67.46 C-32.6 68.98 -24.5 70.1 -18.19 66.71 C-16.03 64.41 -16.03 64.41 -16.44 60.46 C-17.16 60.17 -17.89 59.88 -18.63 59.58 C-22.54 58.02 -22.54 58.02 -26.44 56.46 C-25.95 54.97 -25.95 54.97 -25.44 53.46 C-26 53.64 -26.57 53.83 -27.14 54.02 C-29.82 54.53 -31.56 54.18 -34.19 53.52 C-34.99 53.32 -35.79 53.13 -36.61 52.93 C-37.22 52.77 -37.82 52.62 -38.44 52.46 C-38.44 51.47 -38.44 50.48 -38.44 49.46 C-39.5 49.8 -39.5 49.8 -40.58 50.14 C-44.36 50.56 -46.01 49.43 -49.25 47.52 C-50.23 46.95 -51.21 46.39 -52.21 45.8 C-52.95 45.36 -53.68 44.92 -54.44 44.46 C-54.11 43.47 -53.78 42.48 -53.44 41.46 C-55.42 41.95 -55.42 41.95 -57.44 42.46 C-64.04 35.12 -66.92 28.2 -68.44 18.46 C-67.78 18.46 -67.12 18.46 -66.44 18.46 C-66.77 17.47 -67.1 16.48 -67.44 15.46 C-66.48 11.03 -65.32 7.93 -62.44 4.46 C-62.13 3.74 -61.82 3.01 -61.5 2.27 C-60.98 1.37 -60.98 1.37 -60.44 0.46 C-59.11 0.12 -57.77 -0.21 -56.44 -0.54 C-55.64 -1.33 -54.83 -2.11 -54 -2.92 C-49.43 -6.96 -43.28 -7.53 -37.44 -8.54 C-36.29 -8.75 -35.14 -8.95 -33.95 -9.16 C-22.7 -10.38 -8.99 -7.13 0 0 Z " fill="#F6F6F6" transform="translate(667.44140625,540.54296875)"/>
<path d="M0 0 C2.4 -0.05 4.79 -0.09 7.19 -0.12 C8.2 -0.15 8.2 -0.15 9.23 -0.18 C13.35 -0.22 16.26 0.37 20 2 C20.01 3.1 20.03 4.21 20.04 5.35 C20.1 9.48 20.18 13.61 20.26 17.74 C20.3 19.52 20.32 21.3 20.35 23.09 C20.38 25.66 20.43 28.23 20.49 30.81 C20.49 31.59 20.5 32.38 20.51 33.19 C20.66 38.89 21.94 43.69 24 49 C24.66 49 25.32 49 26 49 C26 49.66 26 50.32 26 51 C29.96 51.99 33.92 52.98 38 54 C38 53.34 38 52.68 38 52 C39.32 52.33 40.64 52.66 42 53 C42 52.34 42 51.68 42 51 C43.94 49.21 45.99 47.59 48.05 45.95 C51.38 42.62 51.96 39.75 52.2 35.07 C52.18 33.54 52.16 32.01 52.12 30.49 C52.12 29.68 52.11 28.87 52.1 28.04 C52.08 25.46 52.04 22.89 52 20.31 C51.95 16.91 51.91 13.51 51.88 10.11 C51.86 9.33 51.84 8.55 51.82 7.74 C51.81 5.83 51.89 3.91 52 2 C54.62 -0.62 56.5 -0.26 60.07 -0.27 C61.24 -0.26 61.24 -0.26 62.44 -0.25 C63.6 -0.26 63.6 -0.26 64.79 -0.27 C68.7 -0.26 70.68 -0.21 74 2 C74.3 4.59 74.4 6.94 74.37 9.54 C74.38 10.31 74.38 11.09 74.38 11.89 C74.39 14.47 74.38 17.05 74.36 19.63 C74.36 21.43 74.36 23.22 74.36 25.01 C74.36 28.78 74.35 32.55 74.34 36.32 C74.31 41.13 74.31 45.95 74.32 50.76 C74.32 54.47 74.32 58.18 74.31 61.89 C74.3 63.67 74.3 65.44 74.3 67.21 C74.3 69.71 74.29 72.2 74.27 74.69 C74.28 75.41 74.28 76.14 74.28 76.89 C74.23 81.87 73.36 86.2 72 91 C70.51 90.5 70.51 90.5 69 90 C69.27 90.54 69.54 91.07 69.81 91.62 C70 94 70 94 67.75 97.19 C65 100 65 100 62 101 C61.27 103.02 61.27 103.02 61 105 C59.68 104.67 58.36 104.34 57 104 C56.94 104.61 56.89 105.23 56.83 105.86 C56 108 56 108 53.64 109.23 C52.66 109.55 51.69 109.86 50.69 110.19 C49.72 110.51 48.76 110.83 47.76 111.17 C35.64 114.82 26.83 112.03 15.57 106.63 C12.85 104.9 12.19 103.91 11 101 C10.4 100.73 9.8 100.46 9.19 100.19 C4.03 97.39 1.39 91.42 -0.43 86.05 C-1.38 82.62 -1.88 79.59 -2 76 C-0.87 74.29 -0.87 74.29 1 73 C7.59 72.02 14.4 72.23 20 76 C21.5 79.56 21.5 79.56 22 83 C21.67 83.66 21.34 84.32 21 85 C22.49 85.5 22.49 85.5 24 86 C24.41 86.45 24.83 86.91 25.25 87.38 C28.77 90.64 32.14 91.98 36.87 92.04 C39.64 91.83 42.29 91.62 45 91 C45.33 90.34 45.66 89.68 46 89 C47.31 87.65 48.64 86.31 50 85 C49.67 84.34 49.34 83.68 49 83 C49.66 82.67 50.32 82.34 51 82 C51.69 79.19 51.69 79.19 52.12 75.94 C52.29 74.83 52.46 73.73 52.63 72.59 C52.81 71.31 52.81 71.31 53 70 C52.29 70.33 51.57 70.65 50.84 70.99 C47.87 72.05 45.72 72.24 42.59 72.23 C41.58 72.23 40.57 72.23 39.53 72.22 C38.49 72.21 37.45 72.2 36.38 72.19 C35.33 72.19 34.28 72.19 33.2 72.19 C25.42 72.14 25.42 72.14 22 71 C21.31 68.94 21.31 68.94 21 67 C20.46 67.25 19.93 67.5 19.38 67.75 C15.62 68.15 13.88 66.28 11 64 C9.62 62.37 8.28 60.71 7 59 C5.98 58.07 5.98 58.07 4.94 57.12 C-3.41 47.97 -2.33 32.63 -2.26 20.99 C-2.25 18.91 -2.26 16.82 -2.27 14.74 C-2.27 13.4 -2.27 12.06 -2.27 10.71 C-2.26 9.52 -2.26 8.32 -2.26 7.09 C-2.01 4.15 -1.54 2.48 0 0 Z " fill="#F6F6F6" transform="translate(689,557)"/>
<path d="M0 0 C1.84 0.01 1.84 0.01 3.72 0.01 C6.94 0.31 6.94 0.31 9.94 2.31 C10.28 4.93 10.28 4.93 10.23 8.2 C10.22 9.36 10.21 10.53 10.2 11.73 C10.18 12.95 10.15 14.18 10.12 15.44 C10.1 17.28 10.1 17.28 10.08 19.17 C10.05 22.22 10 25.26 9.94 28.31 C10.93 27.65 11.92 26.99 12.94 26.31 C25.42 23.09 37.4 24.76 48.75 30.81 C56.09 35.94 62.11 44.55 63.94 53.31 C64.23 56.23 64.34 59.13 64.38 62.06 C64.39 63.14 64.39 63.14 64.41 64.25 C64.33 68.99 63.35 72.25 60.94 76.31 C60.28 76.31 59.62 76.31 58.94 76.31 C59.29 77.17 59.29 77.17 59.65 78.05 C59.94 80.31 59.94 80.31 58.5 82.45 C57.51 83.5 57.51 83.5 56.5 84.56 C55.84 85.27 55.18 85.98 54.5 86.7 C53.99 87.23 53.47 87.77 52.94 88.31 C51.62 87.98 50.3 87.65 48.94 87.31 C49.27 88.3 49.6 89.29 49.94 90.31 C44.62 94.02 40.44 96.57 33.87 96.54 C32.89 96.54 31.91 96.54 30.9 96.54 C29.85 96.53 28.81 96.52 27.73 96.51 C26.11 96.5 26.11 96.5 24.46 96.5 C21.01 96.49 17.57 96.46 14.12 96.44 C11.79 96.43 9.45 96.42 7.11 96.41 C1.39 96.39 -4.34 96.35 -10.06 96.31 C-10.85 90.72 -11.22 85.29 -11.24 79.65 C-11.25 78.82 -11.25 78 -11.26 77.15 C-11.28 74.45 -11.29 71.74 -11.3 69.04 C-11.3 68.12 -11.31 67.19 -11.31 66.23 C-11.33 61.34 -11.35 56.45 -11.36 51.56 C-11.37 46.5 -11.4 41.45 -11.44 36.39 C-11.47 32.5 -11.48 28.61 -11.48 24.72 C-11.49 22.86 -11.5 20.99 -11.52 19.13 C-11.54 16.53 -11.54 13.93 -11.53 11.33 C-11.55 10.56 -11.56 9.79 -11.57 8.99 C-11.52 3.81 -11.52 3.81 -9.24 1.33 C-6.1 -0.14 -3.45 -0.05 0 0 Z M15.94 48.31 C14.53 50.36 14.53 50.36 13.94 52.31 C12.62 52.31 11.3 52.31 9.94 52.31 C9.86 54.37 9.8 56.44 9.75 58.5 C9.72 59.65 9.68 60.8 9.64 61.98 C9.97 65.64 10.93 67.3 12.94 70.31 C13.08 71.04 13.22 71.77 13.36 72.52 C13.77 74.5 13.77 74.5 15.79 75.32 C16.95 75.66 16.95 75.66 18.12 76 C18.93 76.24 19.74 76.47 20.57 76.72 C23.34 77.41 26.1 77.95 28.94 78.31 C28.94 77.65 28.94 76.99 28.94 76.31 C30.92 75.98 32.9 75.65 34.94 75.31 C34.94 74.65 34.94 73.99 34.94 73.31 C35.87 73.17 36.79 73.02 37.75 72.88 C41.26 71.15 41.6 70.72 42.94 67.25 C44.65 61.1 42.89 56.18 40.94 50.31 C35.84 46.19 30.73 44.59 24.24 44.95 C20.98 45.46 18.64 46.42 15.94 48.31 Z " fill="#F6F6F6" transform="translate(526.0625,532.6875)"/>
<path d="M0 0 C3.81 0.14 7.63 0.29 11.44 0.44 C12.53 0.48 13.61 0.52 14.74 0.56 C16.29 0.62 16.29 0.62 17.87 0.68 C18.83 0.72 19.79 0.76 20.78 0.79 C23 1 23 1 24 2 C24.11 4.07 24.15 6.14 24.16 8.21 C24.17 9.19 24.17 9.19 24.18 10.18 C24.19 12.34 24.2 14.5 24.2 16.66 C24.21 18.16 24.21 19.66 24.22 21.16 C24.23 24.32 24.24 27.48 24.24 30.63 C24.25 34.66 24.27 38.69 24.3 42.71 C24.32 45.82 24.32 48.93 24.32 52.04 C24.33 53.52 24.33 55 24.35 56.49 C24.41 64.41 24.38 71.68 21 79 C20.69 79.68 20.38 80.35 20.06 81.05 C17.67 85.72 17.67 85.72 14.75 86.94 C14.17 86.96 13.6 86.98 13 87 C13.33 87.99 13.66 88.98 14 90 C4.16 96.95 -6.91 100.46 -19 99 C-22.11 98.23 -25.05 97.25 -28 96 C-28 95.34 -28 94.68 -28 94 C-28.57 94.22 -29.14 94.45 -29.73 94.68 C-32 95 -32 95 -34.11 93.88 C-42.66 87.05 -48.34 80.99 -50 70 C-50.41 66.02 -50.64 62.06 -50.81 58.06 C-50.88 57.02 -50.94 55.98 -51.01 54.91 C-51.05 53.92 -51.1 52.93 -51.14 51.91 C-51.19 51.01 -51.23 50.12 -51.28 49.2 C-51.19 48.47 -51.1 47.75 -51 47 C-47.26 44.51 -45.21 44.73 -40.75 44.75 C-39.47 44.74 -38.18 44.74 -36.86 44.73 C-27.63 45.37 -27.63 45.37 -25 48 C-24.84 49.63 -24.75 51.27 -24.68 52.91 C-24.64 53.9 -24.6 54.89 -24.56 55.91 C-24.52 56.95 -24.48 57.99 -24.44 59.06 C-24.39 60.11 -24.35 61.15 -24.31 62.23 C-24.2 64.82 -24.1 67.41 -24 70 C-18.56 72.87 -13.13 73.46 -7 73 C-4.79 71.53 -4.18 70.57 -3.38 68.06 C-3.25 67.38 -3.13 66.7 -3 66 C-2.74 65.13 -2.74 65.13 -2.48 64.24 C-1.88 61.46 -1.88 58.89 -1.89 56.04 C-1.89 54.84 -1.89 53.64 -1.89 52.4 C-1.89 51.11 -1.9 49.82 -1.9 48.48 C-1.9 47.14 -1.91 45.81 -1.91 44.47 C-1.91 40.95 -1.92 37.43 -1.93 33.91 C-1.94 30.32 -1.95 26.73 -1.95 23.13 C-1.96 16.09 -1.98 9.04 -2 2 C-1.34 2 -0.68 2 0 2 C0 1.34 0 0.68 0 0 Z " fill="#F6F6F6" transform="translate(400,533)"/>
<path d="M0 0 C3.62 0.91 6.72 2.23 10 4 C10 3.34 10 2.68 10 2 C21.47 -0.65 32.75 -0.15 43.2 5.79 C52.43 12.01 58.24 19.55 60.58 30.5 C61.26 34.55 61.25 38.53 61.2 42.63 C61.19 43.5 61.19 44.38 61.19 45.28 C61.18 48.04 61.15 50.8 61.12 53.56 C61.11 55.45 61.11 57.33 61.1 59.22 C61.08 63.81 61.04 68.41 61 73 C59.02 73.33 57.04 73.66 55 74 C55.33 73.34 55.66 72.68 56 72 C55.34 71.67 54.68 71.34 54 71 C53.67 71.66 53.34 72.32 53 73 C48.71 72.67 44.42 72.34 40 72 C38.92 64.9 38.67 57.8 38.44 50.63 C38.37 48.54 38.3 46.45 38.22 44.36 C38.17 43.05 38.13 41.73 38.09 40.38 C38.05 39.18 38 37.98 37.96 36.74 C38 34 38 34 39 33 C37.16 28.96 35.46 25.83 32 23 C28.41 21.76 24.77 21.73 21 21.62 C19.78 21.58 18.57 21.53 17.31 21.48 C13.86 21.69 13.86 21.69 11.69 24.27 C9.36 28.04 7.76 30.74 7.68 35.22 C7.66 36.04 7.64 36.86 7.62 37.7 C7.6 39.02 7.6 39.02 7.59 40.36 C7.57 41.26 7.55 42.17 7.53 43.1 C7.47 45.98 7.42 48.87 7.38 51.75 C7.34 53.71 7.3 55.66 7.26 57.62 C7.16 62.41 7.08 67.21 7 72 C0.07 72 -6.86 72 -14 72 C-14.2 62.91 -14.38 53.82 -14.55 44.72 C-14.62 40.5 -14.7 36.28 -14.8 32.06 C-14.89 27.99 -14.97 23.91 -15.03 19.84 C-15.06 18.29 -15.09 16.73 -15.13 15.18 C-15.18 13 -15.22 10.83 -15.25 8.65 C-15.27 7.41 -15.3 6.17 -15.32 4.9 C-15.22 3.94 -15.11 2.99 -15 2 C-10.33 -1.11 -5.47 -0.36 0 0 Z " fill="#F6F6F6" transform="translate(786,557)"/>
<path d="M0 0 C7.28 7.28 10.93 14.96 11.13 25.31 C11.13 26.07 11.13 26.84 11.12 27.62 C11.13 28.42 11.13 29.21 11.13 30.02 C11.02 36.11 9.89 40.45 6.75 45.75 C6.09 45.75 5.43 45.75 4.75 45.75 C4.67 46.33 4.58 46.9 4.5 47.5 C3.52 50.45 2.06 51.69 -0.25 53.75 C-1.33 54.74 -1.33 54.74 -2.44 55.75 C-9.99 61.12 -16.63 62.39 -25.81 62.25 C-26.8 62.27 -27.79 62.28 -28.81 62.3 C-37.53 62.25 -43.84 59.76 -50.25 53.75 C-50.25 53.09 -50.25 52.43 -50.25 51.75 C-50.83 51.52 -51.4 51.3 -52 51.06 C-56.68 48.33 -59.31 43.68 -61.25 38.75 C-64.63 22.49 -64.63 22.49 -62.38 16.38 C-61.25 14.75 -61.25 14.75 -59.25 13.75 C-58.84 11.43 -58.51 9.09 -58.25 6.75 C-57.59 6.75 -56.93 6.75 -56.25 6.75 C-56.02 6.01 -55.8 5.26 -55.56 4.5 C-53.96 1.14 -52.28 -0.12 -49.25 -2.25 C-47.89 -3.27 -47.89 -3.27 -46.5 -4.31 C-31.01 -13.55 -14.24 -9.86 0 0 Z M-37.25 14.75 C-38.24 14.75 -39.23 14.75 -40.25 14.75 C-40.39 15.68 -40.54 16.61 -40.69 17.56 C-41.25 20.75 -41.25 20.75 -42.25 23.75 C-42.75 29.88 -42.36 32.88 -38.25 37.75 C-34.3 41.88 -31.17 43.61 -25.56 43.96 C-20.28 43.48 -15.68 40.74 -12.25 36.75 C-11.89 35.09 -11.56 33.42 -11.25 31.75 C-10.59 31.42 -9.93 31.09 -9.25 30.75 C-8.54 26.02 -8.3 22.28 -10.89 18.12 C-15.18 12.97 -15.18 12.97 -21.25 10.75 C-27.81 10.44 -31.7 11.05 -37.25 14.75 Z M-5.25 53.75 C-4.92 54.41 -4.59 55.07 -4.25 55.75 C-3.92 55.09 -3.59 54.43 -3.25 53.75 C-3.91 53.75 -4.57 53.75 -5.25 53.75 Z " fill="#F6F6F6" transform="translate(495.25,567.25)"/>
<path d="M0 0 C0.53 0.46 1.07 0.93 1.62 1.4 C1.62 2.06 1.62 2.72 1.62 3.4 C2.94 3.73 4.26 4.06 5.62 4.4 C5.62 6.05 5.62 7.7 5.62 9.4 C6.61 9.07 7.6 8.74 8.62 8.4 C9.46 9.96 10.29 11.52 11.12 13.09 C11.81 14.4 11.81 14.4 12.52 15.73 C13.67 18.52 13.83 20.42 13.62 23.4 C10.55 23.54 7.5 23.64 4.43 23.71 C3.57 23.76 2.7 23.8 1.81 23.84 C-4.69 23.97 -4.69 23.97 -8.18 21.13 C-8.91 20.23 -9.64 19.33 -10.38 18.4 C-14.33 14.66 -17.93 13.51 -23.2 12.65 C-24.23 12.46 -24.23 12.46 -25.29 12.27 C-26.99 11.97 -28.69 11.68 -30.38 11.4 C-30.71 12.39 -31.04 13.38 -31.38 14.4 C-33.03 16.09 -34.7 17.76 -36.38 19.4 C-39.35 23.85 -38.91 28.18 -38.38 33.4 C-37.05 36.38 -37.05 36.38 -35.38 38.4 C-35.38 39.06 -35.38 39.72 -35.38 40.4 C-34.6 40.71 -33.82 41.02 -33.01 41.34 C-30.38 42.4 -30.38 42.4 -28.38 43.4 C-23.85 44.14 -19.94 44.43 -16.02 41.84 C-14.63 40.58 -13.28 39.28 -11.98 37.93 C-10.38 36.4 -10.38 36.4 -8.38 36.4 C-8.09 35.62 -7.81 34.83 -7.51 34.03 C-6.38 31.4 -6.38 31.4 -4.38 29.4 C2.18 28.65 8.04 28.69 13.62 32.4 C13.29 35.37 12.96 38.34 12.62 41.4 C11.13 40.91 11.13 40.91 9.62 40.4 C9.82 41 10.03 41.6 10.24 42.21 C10.62 44.4 10.62 44.4 8.62 47.4 C7.63 48.39 7.63 48.39 6.62 49.4 C6.33 50.06 6.04 50.72 5.74 51.4 C4.38 53.82 3.15 54.39 0.62 55.4 C0.62 56.06 0.62 56.72 0.62 57.4 C-2.85 58.39 -2.85 58.39 -6.38 59.4 C-6.38 60.06 -6.38 60.72 -6.38 61.4 C-12.01 62.53 -12.01 62.53 -15.38 61.4 C-15.38 62.06 -15.38 62.72 -15.38 63.4 C-18.45 63.46 -21.51 63.5 -24.57 63.53 C-25.43 63.54 -26.3 63.56 -27.19 63.58 C-31.7 63.61 -35.28 63.56 -39.38 61.4 C-38.89 59.92 -38.89 59.92 -38.38 58.4 C-38.95 58.63 -39.52 58.85 -40.11 59.08 C-42.38 59.4 -42.38 59.4 -44.53 58.29 C-51.87 52.49 -57.65 45.52 -60.38 36.4 C-60.74 33.33 -60.71 30.31 -60.63 27.21 C-60.63 26.42 -60.62 25.63 -60.62 24.81 C-60.54 18.85 -60.08 15.19 -56.38 10.4 C-55 8.1 -53.69 5.75 -52.38 3.4 C-51.72 3.4 -51.06 3.4 -50.38 3.4 C-49.72 2.74 -49.06 2.08 -48.38 1.4 C-42.34 -4.48 -42.34 -4.48 -38.45 -4.97 C-37.76 -4.85 -37.08 -4.73 -36.38 -4.6 C-36.38 -5.26 -36.38 -5.92 -36.38 -6.6 C-23.02 -9.97 -11.44 -7.78 0 0 Z " fill="#F6F6F6" transform="translate(916.3828125,565.59765625)"/>
<path d="M0 0 C8.91 0 17.82 0 27 0 C27 0.33 27 0.66 27 1 C18.09 1 9.18 1 0 1 C0 0.67 0 0.34 0 0 Z " fill="#F7F7F7" transform="translate(615,490)"/>
<path d="M0 0 C0.33 0 0.66 0 1 0 C1 8.58 1 17.16 1 26 C0.67 26 0.34 26 0 26 C0 17.42 0 8.84 0 0 Z " fill="#F7F7F7" transform="translate(528,422)"/>
<path d="M0 0 C7.92 0 15.84 0 24 0 C24 0.33 24 0.66 24 1 C16.08 1 8.16 1 0 1 C0 0.67 0 0.34 0 0 Z " fill="#F7F7F7" transform="translate(687,490)"/>
<path d="M0 0 C0.33 0 0.66 0 1 0 C1 7.59 1 15.18 1 23 C0.67 23 0.34 23 0 23 C0 15.41 0 7.82 0 0 Z " fill="#F7F7F7" transform="translate(528,398)"/>
<path d="M0 0 C6.6 0 13.2 0 20 0 C20 0.33 20 0.66 20 1 C13.4 1 6.8 1 0 1 C0 0.67 0 0.34 0 0 Z " fill="#F7F7F7" transform="translate(555,490)"/>
<path d="M0 0 C0.33 0 0.66 0 1 0 C1 5.61 1 11.22 1 17 C0.67 17 0.34 17 0 17 C0 11.39 0 5.78 0 0 Z " fill="#F7F7F7" transform="translate(397,546)"/>
<path d="M0 0 C0.33 0 0.66 0 1 0 C1 5.61 1 11.22 1 17 C0.67 17 0.34 17 0 17 C0 11.39 0 5.78 0 0 Z " fill="#F7F7F7" transform="translate(528,317)"/>
<path d="M0 0 C5.28 0 10.56 0 16 0 C16 0.33 16 0.66 16 1 C10.72 1 5.44 1 0 1 C0 0.67 0 0.34 0 0 Z " fill="#000000" transform="translate(775,630)"/>
<path d="M0 0 C0.33 0 0.66 0 1 0 C1 4.62 1 9.24 1 14 C0.67 14 0.34 14 0 14 C0 9.38 0 4.76 0 0 Z " fill="#F7F7F7" transform="translate(705,226)"/>
<path d="M0 0 C0.33 0 0.66 0 1 0 C1 4.29 1 8.58 1 13 C0.67 13 0.34 13 0 13 C0 8.71 0 4.42 0 0 Z " fill="#F7F7F7" transform="translate(528,471)"/>
<path d="M0 0 C0.33 0 0.66 0 1 0 C1 4.29 1 8.58 1 13 C0.67 13 0.34 13 0 13 C0 8.71 0 4.42 0 0 Z " fill="#F7F7F7" transform="translate(528,302)"/>
<path d="M0 0 C0.33 0 0.66 0 1 0 C1 3.96 1 7.92 1 12 C0.67 12 0.34 12 0 12 C0 8.04 0 4.08 0 0 Z " fill="#F7F7F7" transform="translate(528,339)"/>
<path d="M0 0 C0.33 0 0.66 0 1 0 C1 3.96 1 7.92 1 12 C0.67 12 0.34 12 0 12 C0 8.04 0 4.08 0 0 Z " fill="#F7F7F7" transform="translate(676,280)"/>
<path d="M0 0 C3.63 0 7.26 0 11 0 C11 0.33 11 0.66 11 1 C7.37 1 3.74 1 0 1 C0 0.67 0 0.34 0 0 Z " fill="#000000" transform="translate(519,630)"/>
<path d="M0 0 C0.33 0 0.66 0 1 0 C1 3.63 1 7.26 1 11 C0.67 11 0.34 11 0 11 C0 7.37 0 3.74 0 0 Z " fill="#F7F7F7" transform="translate(397,565)"/>
<path d="M0 0 C0.33 0 0.66 0 1 0 C1 3.63 1 7.26 1 11 C0.67 11 0.34 11 0 11 C0 7.37 0 3.74 0 0 Z " fill="#F7F7F7" transform="translate(676,319)"/>
<path d="M0 0 C0.33 0 0.66 0 1 0 C1 3.63 1 7.26 1 11 C0.67 11 0.34 11 0 11 C0 7.37 0 3.74 0 0 Z " fill="#F7F7F7" transform="translate(705,204)"/>
<path d="M0 0 C0.33 0 0.66 0 1 0 C1 2.97 1 5.94 1 9 C0.67 9 0.34 9 0 9 C0 6.03 0 3.06 0 0 Z " fill="#F7F7F7" transform="translate(528,371)"/>
<path d="M0 0 C0.33 0 0.66 0 1 0 C1 2.97 1 5.94 1 9 C0.67 9 0.34 9 0 9 C0 6.03 0 3.06 0 0 Z " fill="#F7F7F7" transform="translate(528,361)"/>
<path d="M0 0 C0.33 0 0.66 0 1 0 C1 2.97 1 5.94 1 9 C0.67 9 0.34 9 0 9 C0 6.03 0 3.06 0 0 Z " fill="#F7F7F7" transform="translate(676,332)"/>
<path d="M0 0 C2.64 0 5.28 0 8 0 C8 0.33 8 0.66 8 1 C5.36 1 2.72 1 0 1 C0 0.67 0 0.34 0 0 Z " fill="#000000" transform="translate(831,630)"/>
<path d="M0 0 C2.64 0 5.28 0 8 0 C8 0.33 8 0.66 8 1 C5.36 1 2.72 1 0 1 C0 0.67 0 0.34 0 0 Z " fill="#F7F7F7" transform="translate(726,490)"/>
<path d="M0 0 C0.33 0 0.66 0 1 0 C1 2.64 1 5.28 1 8 C0.67 8 0.34 8 0 8 C0 5.36 0 2.72 0 0 Z " fill="#F7F7F7" transform="translate(705,312)"/>
<path d="M0 0 C0.33 0 0.66 0 1 0 C1 2.64 1 5.28 1 8 C0.67 8 0.34 8 0 8 C0 5.36 0 2.72 0 0 Z " fill="#F7F7F7" transform="translate(705,302)"/>
<path d="M0 0 C0.33 0 0.66 0 1 0 C1 2.64 1 5.28 1 8 C0.67 8 0.34 8 0 8 C0 5.36 0 2.72 0 0 Z " fill="#F7F7F7" transform="translate(705,293)"/>
<path d="M0 0 C2.31 0 4.62 0 7 0 C7 0.33 7 0.66 7 1 C4.69 1 2.38 1 0 1 C0 0.67 0 0.34 0 0 Z " fill="#F7F7F7" transform="translate(715,490)"/>
<path d="M0 0 C2.31 0 4.62 0 7 0 C7 0.33 7 0.66 7 1 C4.69 1 2.38 1 0 1 C0 0.67 0 0.34 0 0 Z " fill="#F7F7F7" transform="translate(667,490)"/>
<path d="M0 0 C2.31 0 4.62 0 7 0 C7 0.33 7 0.66 7 1 C4.69 1 2.38 1 0 1 C0 0.67 0 0.34 0 0 Z " fill="#F7F7F7" transform="translate(658,490)"/>
<path d="M0 0 C2.31 0 4.62 0 7 0 C7 0.33 7 0.66 7 1 C4.69 1 2.38 1 0 1 C0 0.67 0 0.34 0 0 Z " fill="#F7F7F7" transform="translate(596,490)"/>
<path d="M0 0 C2.31 0 4.62 0 7 0 C7 0.33 7 0.66 7 1 C4.69 1 2.38 1 0 1 C0 0.67 0 0.34 0 0 Z " fill="#F7F7F7" transform="translate(540,490)"/>
<path d="M0 0 C0.33 0 0.66 0 1 0 C1 2.31 1 4.62 1 7 C0.67 7 0.34 7 0 7 C0 4.69 0 2.38 0 0 Z " fill="#F7F7F7" transform="translate(528,352)"/>
<path d="M0 0 C0.33 0 0.66 0 1 0 C1 2.31 1 4.62 1 7 C0.67 7 0.34 7 0 7 C0 4.69 0 2.38 0 0 Z " fill="#F7F7F7" transform="translate(705,341)"/>
<path d="M0 0 C0.33 0 0.66 0 1 0 C1 2.31 1 4.62 1 7 C0.67 7 0.34 7 0 7 C0 4.69 0 2.38 0 0 Z " fill="#F7F7F7" transform="translate(676,311)"/>
<path d="M0 0 C0.33 0 0.66 0 1 0 C1 1.98 1 3.96 1 6 C0.67 6 0.34 6 0 6 C0 4.02 0 2.04 0 0 Z " fill="#F7F7F7" transform="translate(770,591)"/>
<path d="M0 0 C0.33 0 0.66 0 1 0 C1 1.98 1 3.96 1 6 C0.67 6 0.34 6 0 6 C0 4.02 0 2.04 0 0 Z " fill="#F7F7F7" transform="translate(397,585)"/>
<path d="M0 0 C1.98 0 3.96 0 6 0 C6 0.33 6 0.66 6 1 C4.02 1 2.04 1 0 1 C0 0.67 0 0.34 0 0 Z " fill="#F7F7F7" transform="translate(605,490)"/>
<path d="M0 0 C1.98 0 3.96 0 6 0 C6 0.33 6 0.66 6 1 C4.02 1 2.04 1 0 1 C0 0.67 0 0.34 0 0 Z " fill="#F7F7F7" transform="translate(625,432)"/>
<path d="M0 0 C0.33 0 0.66 0 1 0 C1 1.98 1 3.96 1 6 C0.67 6 0.34 6 0 6 C0 4.02 0 2.04 0 0 Z " fill="#F7F7F7" transform="translate(676,260)"/>
<path d="M0 0 C0.33 0 0.66 0 1 0 C1 1.98 1 3.96 1 6 C0.67 6 0.34 6 0 6 C0 4.02 0 2.04 0 0 Z " fill="#F7F7F7" transform="translate(705,241)"/>
<path d="M0 0 C0.33 0 0.66 0 1 0 C1 1.65 1 3.3 1 5 C0.67 5 0.34 5 0 5 C0 3.35 0 1.7 0 0 Z " fill="#F7F7F7" transform="translate(770,585)"/>
<path d="M0 0 C0.33 0 0.66 0 1 0 C1 1.65 1 3.3 1 5 C0.67 5 0.34 5 0 5 C0 3.35 0 1.7 0 0 Z " fill="#F7F7F7" transform="translate(397,578)"/>
<path d="M0 0 C0.33 0 0.66 0 1 0 C1 1.65 1 3.3 1 5 C0.67 5 0.34 5 0 5 C0 3.35 0 1.7 0 0 Z " fill="#F7F7F7" transform="translate(770,571)"/>
<path d="M0 0 C1.65 0 3.3 0 5 0 C5 0.33 5 0.66 5 1 C3.35 1 1.7 1 0 1 C0 0.67 0 0.34 0 0 Z " fill="#F7F7F7" transform="translate(681,490)"/>
<path d="M0 0 C1.65 0 3.3 0 5 0 C5 0.33 5 0.66 5 1 C3.35 1 1.7 1 0 1 C0 0.67 0 0.34 0 0 Z " fill="#F7F7F7" transform="translate(585,490)"/>
<path d="M0 0 C0.33 0 0.66 0 1 0 C1 1.65 1 3.3 1 5 C0.67 5 0.34 5 0 5 C0 3.35 0 1.7 0 0 Z " fill="#F7F7F7" transform="translate(528,463)"/>
<path d="M0 0 C0.66 0.33 1.32 0.66 2 1 C1.01 1.66 0.02 2.32 -1 3 C-0.67 2.01 -0.34 1.02 0 0 Z " fill="#000000" transform="translate(561,426)"/>
<path d="M0 0 C0.33 0 0.66 0 1 0 C1 1.65 1 3.3 1 5 C0.67 5 0.34 5 0 5 C0 3.35 0 1.7 0 0 Z " fill="#F7F7F7" transform="translate(705,322)"/>
<path d="M0 0 C0.33 0 0.66 0 1 0 C1 1.65 1 3.3 1 5 C0.67 5 0.34 5 0 5 C0 3.35 0 1.7 0 0 Z " fill="#F7F7F7" transform="translate(647,316)"/>
<path d="M0 0 C0.33 0 0.66 0 1 0 C1 1.65 1 3.3 1 5 C0.67 5 0.34 5 0 5 C0 3.35 0 1.7 0 0 Z " fill="#F7F7F7" transform="translate(676,304)"/>
<path d="M0 0 C0.33 0 0.66 0 1 0 C1 1.65 1 3.3 1 5 C0.67 5 0.34 5 0 5 C0 3.35 0 1.7 0 0 Z " fill="#F7F7F7" transform="translate(705,277)"/>
<path d="M0 0 C0.33 0 0.66 0 1 0 C1 1.65 1 3.3 1 5 C0.67 5 0.34 5 0 5 C0 3.35 0 1.7 0 0 Z " fill="#F7F7F7" transform="translate(676,248)"/>
<path d="M0 0 C0.33 0 0.66 0 1 0 C1 1.65 1 3.3 1 5 C0.67 5 0.34 5 0 5 C0 3.35 0 1.7 0 0 Z " fill="#F7F7F7" transform="translate(676,241)"/>
<path d="M0 0 C0.33 0 0.66 0 1 0 C1 1.65 1 3.3 1 5 C0.67 5 0.34 5 0 5 C0 3.35 0 1.7 0 0 Z " fill="#F7F7F7" transform="translate(647,224)"/>
<path d="M0 0 C0.33 0 0.66 0 1 0 C1 1.65 1 3.3 1 5 C0.67 5 0.34 5 0 5 C0 3.35 0 1.7 0 0 Z " fill="#F7F7F7" transform="translate(676,221)"/>
<path d="M0 0 C0.33 0 0.66 0 1 0 C1 1.65 1 3.3 1 5 C0.67 5 0.34 5 0 5 C0 3.35 0 1.7 0 0 Z " fill="#F7F7F7" transform="translate(647,199)"/>
<path d="M0 0 C0.99 0.33 1.98 0.66 3 1 C2.01 1 1.02 1 0 1 C0 0.67 0 0.34 0 0 Z " fill="#B9B9B9" transform="translate(707,625)"/>
<path d="M0 0 C4 1 4 1 4 1 Z " fill="#F7F7F7" transform="translate(601,594)"/>
<path d="M0 0 C4 1 4 1 4 1 Z " fill="#F7F7F7" transform="translate(753,556)"/>
<path d="M0 0 C1 4 1 4 1 4 Z " fill="#F7F7F7" transform="translate(528,457)"/>
<path d="M0 0 C1 4 1 4 1 4 Z " fill="#F7F7F7" transform="translate(528,392)"/>
<path d="M0 0 C1 4 1 4 1 4 Z " fill="#F7F7F7" transform="translate(528,384)"/>
<path d="M0 0 C1 4 1 4 1 4 Z " fill="#F7F7F7" transform="translate(705,335)"/>
<path d="M0 0 C1 4 1 4 1 4 Z " fill="#F7F7F7" transform="translate(705,329)"/>
<path d="M0 0 C1 4 1 4 1 4 Z " fill="#F7F7F7" transform="translate(676,294)"/>
<path d="M0 0 C1 4 1 4 1 4 Z " fill="#F7F7F7" transform="translate(705,255)"/>
<path d="M0 0 C1 4 1 4 1 4 Z " fill="#F7F7F7" transform="translate(705,248)"/>
<path d="M0 0 C1 4 1 4 1 4 Z " fill="#F7F7F7" transform="translate(647,194)"/>
<path d="M0 0 C1 4 1 4 1 4 Z " fill="#F7F7F7" transform="translate(705,193)"/>
<path d="M0 0 C4 1 4 1 4 1 Z " fill="#F7F7F7" transform="translate(680,180)"/>
<path d="M0 0 C0.99 0.5 0.99 0.5 2 1 C1.01 1.5 1.01 1.5 0 2 C0 1.34 0 0.68 0 0 Z " fill="#000000" transform="translate(908,596)"/>
<path d="M0 0 C0.99 0.5 0.99 0.5 2 1 C1.01 1.5 1.01 1.5 0 2 C0 1.34 0 0.68 0 0 Z " fill="#F7F7F7" transform="translate(598,596)"/>
<path d="M0 0 C3 1 3 1 3 1 Z " fill="#F7F7F7" transform="translate(615,594)"/>
<path d="" fill="#F7F7F7" transform="translate(0,0)"/>
<path d="" fill="#F7F7F7" transform="translate(0,0)"/>
<path d="M0 0 C0.99 0.5 0.99 0.5 2 1 C1.01 1.5 1.01 1.5 0 2 C0 1.34 0 0.68 0 0 Z " fill="#A4A4A4" transform="translate(456,583)"/>
<path d="" fill="#F7F7F7" transform="translate(0,0)"/>
<path d="" fill="#F7F7F7" transform="translate(0,0)"/>
<path d="M0 0 C3 1 3 1 3 1 Z " fill="#F7F7F7" transform="translate(577,490)"/>
<path d="" fill="#F7F7F7" transform="translate(0,0)"/>
<path d="M0 0 C0.99 0.5 0.99 0.5 2 1 C1.01 1.5 1.01 1.5 0 2 C0 1.34 0 0.68 0 0 Z " fill="#525252" transform="translate(671,447)"/>
<path d="" fill="#F7F7F7" transform="translate(0,0)"/>
<path d="" fill="#F7F7F7" transform="translate(0,0)"/>
<path d="" fill="#F7F7F7" transform="translate(0,0)"/>
<path d="M0 0 C3 1 3 1 3 1 Z " fill="#F7F7F7" transform="translate(712,181)"/>
<path d="M0 0 C2 1 2 1 2 1 Z " fill="#F7F7F7" transform="translate(723,648)"/>
<path d="M0 0 C2 1 2 1 2 1 Z " fill="#7B7B7B" transform="translate(902,628)"/>
<path d="M0 0 C2 1 2 1 2 1 Z " fill="#000000" transform="translate(910,625)"/>
<path d="M0 0 C2 1 2 1 2 1 Z " fill="#7B7B7B" transform="translate(875,625)"/>
<path d="M0 0 C2 1 2 1 2 1 Z " fill="#7B7B7B" transform="translate(576,621)"/>
<path d="" fill="#F7F7F7" transform="translate(0,0)"/>
<path d="" fill="#F7F7F7" transform="translate(0,0)"/>
<path d="M0 0 C2 1 2 1 2 1 Z " fill="#F7F7F7" transform="translate(467,609)"/>
<path d="" fill="#7B7B7B" transform="translate(0,0)"/>
<path d="" fill="#F7F7F7" transform="translate(0,0)"/>
<path d="" fill="#7B7B7B" transform="translate(0,0)"/>
<path d="" fill="#F7F7F7" transform="translate(0,0)"/>
<path d="M0 0 C2 1 2 1 2 1 Z " fill="#7B7B7B" transform="translate(639,595)"/>
<path d="" fill="#F7F7F7" transform="translate(0,0)"/>
<path d="" fill="#F7F7F7" transform="translate(0,0)"/>
<path d="M0 0 C2 1 2 1 2 1 Z " fill="#7B7B7B" transform="translate(626,591)"/>
<path d="" fill="#7B7B7B" transform="translate(0,0)"/>
<path d="" fill="#F7F7F7" transform="translate(0,0)"/>
<path d="" fill="#F7F7F7" transform="translate(0,0)"/>
<path d="M0 0 C2 1 2 1 2 1 Z " fill="#F7F7F7" transform="translate(749,556)"/>
<path d="M0 0 C2 1 2 1 2 1 Z " fill="#000000" transform="translate(638,554)"/>
<path d="M0 0 C2 1 2 1 2 1 Z " fill="#F7F7F7" transform="translate(405,532)"/>
<path d="M0 0 C2 1 2 1 2 1 Z " fill="#F7F7F7" transform="translate(654,490)"/>
<path d="M0 0 C2 1 2 1 2 1 Z " fill="#F7F7F7" transform="translate(643,490)"/>
<path d="M0 0 C2 1 2 1 2 1 Z " fill="#F7F7F7" transform="translate(582,490)"/>
<path d="" fill="#F7F7F7" transform="translate(0,0)"/>
<path d="" fill="#F7F7F7" transform="translate(0,0)"/>
<path d="M0 0 C2 1 2 1 2 1 Z " fill="#7B7B7B" transform="translate(618,448)"/>
<path d="M0 0 C2 1 2 1 2 1 Z " fill="#7B7B7B" transform="translate(660,441)"/>
<path d="M0 0 C2 1 2 1 2 1 Z " fill="#F7F7F7" transform="translate(633,432)"/>
<path d="" fill="#F7F7F7" transform="translate(0,0)"/>
<path d="" fill="#F7F7F7" transform="translate(0,0)"/>
<path d="" fill="#F7F7F7" transform="translate(0,0)"/>
<path d="" fill="#F7F7F7" transform="translate(0,0)"/>
<path d="" fill="#F7F7F7" transform="translate(0,0)"/>
<path d="" fill="#F7F7F7" transform="translate(0,0)"/>
<path d="" fill="#F7F7F7" transform="translate(0,0)"/>
<path d="M0 0 C2 1 2 1 2 1 Z " fill="#F7F7F7" transform="translate(709,181)"/>
<path d="M0 0 C2 1 2 1 2 1 Z " fill="#F7F7F7" transform="translate(686,180)"/>
<path d="" fill="#000000" transform="translate(0,0)"/>
<path d="" fill="#000000" transform="translate(0,0)"/>
<path d="" fill="#000000" transform="translate(0,0)"/>
<path d="" fill="#000000" transform="translate(0,0)"/>
<path d="" fill="#F7F7F7" transform="translate(0,0)"/>
<path d="" fill="#F7F7F7" transform="translate(0,0)"/>
<path d="" fill="#000000" transform="translate(0,0)"/>
<path d="" fill="#F7F7F7" transform="translate(0,0)"/>
<path d="" fill="#000000" transform="translate(0,0)"/>
<path d="" fill="#000000" transform="translate(0,0)"/>
<path d="" fill="#000000" transform="translate(0,0)"/>
<path d="" fill="#000000" transform="translate(0,0)"/>
<path d="" fill="#000000" transform="translate(0,0)"/>
<path d="" fill="#F7F7F7" transform="translate(0,0)"/>
<path d="" fill="#F7F7F7" transform="translate(0,0)"/>
<path d="" fill="#000000" transform="translate(0,0)"/>
<path d="" fill="#000000" transform="translate(0,0)"/>
<path d="" fill="#000000" transform="translate(0,0)"/>
<path d="" fill="#000000" transform="translate(0,0)"/>
<path d="" fill="#F7F7F7" transform="translate(0,0)"/>
<path d="" fill="#000000" transform="translate(0,0)"/>
<path d="" fill="#F7F7F7" transform="translate(0,0)"/>
<path d="" fill="#F7F7F7" transform="translate(0,0)"/>
<path d="" fill="#F7F7F7" transform="translate(0,0)"/>
<path d="" fill="#F7F7F7" transform="translate(0,0)"/>
<path d="" fill="#000000" transform="translate(0,0)"/>
<path d="" fill="#F7F7F7" transform="translate(0,0)"/>
<path d="" fill="#F7F7F7" transform="translate(0,0)"/>
<path d="" fill="#000000" transform="translate(0,0)"/>
<path d="" fill="#000000" transform="translate(0,0)"/>
<path d="" fill="#000000" transform="translate(0,0)"/>
<path d="" fill="#000000" transform="translate(0,0)"/>
<path d="" fill="#000000" transform="translate(0,0)"/>
<path d="" fill="#000000" transform="translate(0,0)"/>
<path d="" fill="#000000" transform="translate(0,0)"/>
<path d="" fill="#F7F7F7" transform="translate(0,0)"/>
<path d="" fill="#000000" transform="translate(0,0)"/>
<path d="" fill="#F7F7F7" transform="translate(0,0)"/>
<path d="" fill="#F7F7F7" transform="translate(0,0)"/>
<path d="" fill="#F7F7F7" transform="translate(0,0)"/>
<path d="" fill="#F7F7F7" transform="translate(0,0)"/>
<path d="" fill="#F7F7F7" transform="translate(0,0)"/>
<path d="" fill="#F7F7F7" transform="translate(0,0)"/>
<path d="" fill="#000000" transform="translate(0,0)"/>
<path d="" fill="#F7F7F7" transform="translate(0,0)"/>
<path d="" fill="#F7F7F7" transform="translate(0,0)"/>
<path d="" fill="#F7F7F7" transform="translate(0,0)"/>
<path d="" fill="#F7F7F7" transform="translate(0,0)"/>
<path d="" fill="#F7F7F7" transform="translate(0,0)"/>
<path d="" fill="#F7F7F7" transform="translate(0,0)"/>
<path d="" fill="#F7F7F7" transform="translate(0,0)"/>
<path d="" fill="#F7F7F7" transform="translate(0,0)"/>
<path d="" fill="#000000" transform="translate(0,0)"/>
<path d="" fill="#000000" transform="translate(0,0)"/>
<path d="" fill="#000000" transform="translate(0,0)"/>
<path d="" fill="#F7F7F7" transform="translate(0,0)"/>
<path d="" fill="#000000" transform="translate(0,0)"/>
<path d="" fill="#000000" transform="translate(0,0)"/>
<path d="" fill="#000000" transform="translate(0,0)"/>
<path d="" fill="#F7F7F7" transform="translate(0,0)"/>
<path d="" fill="#F7F7F7" transform="translate(0,0)"/>
<path d="" fill="#000000" transform="translate(0,0)"/>
<path d="" fill="#F7F7F7" transform="translate(0,0)"/>
<path d="" fill="#000000" transform="translate(0,0)"/>
<path d="" fill="#F7F7F7" transform="translate(0,0)"/>
<path d="" fill="#F7F7F7" transform="translate(0,0)"/>
<path d="" fill="#F7F7F7" transform="translate(0,0)"/>
<path d="" fill="#F7F7F7" transform="translate(0,0)"/>
<path d="" fill="#000000" transform="translate(0,0)"/>
<path d="" fill="#000000" transform="translate(0,0)"/>
<path d="" fill="#F7F7F7" transform="translate(0,0)"/>
<path d="" fill="#000000" transform="translate(0,0)"/>
<path d="" fill="#F7F7F7" transform="translate(0,0)"/>
<path d="" fill="#000000" transform="translate(0,0)"/>
<path d="" fill="#000000" transform="translate(0,0)"/>
<path d="" fill="#000000" transform="translate(0,0)"/>
<path d="" fill="#000000" transform="translate(0,0)"/>
<path d="" fill="#F7F7F7" transform="translate(0,0)"/>
<path d="" fill="#F7F7F7" transform="translate(0,0)"/>
<path d="" fill="#F7F7F7" transform="translate(0,0)"/>
<path d="" fill="#000000" transform="translate(0,0)"/>
<path d="" fill="#F7F7F7" transform="translate(0,0)"/>
<path d="" fill="#F7F7F7" transform="translate(0,0)"/>
<path d="" fill="#000000" transform="translate(0,0)"/>
<path d="" fill="#F7F7F7" transform="translate(0,0)"/>
<path d="" fill="#F7F7F7" transform="translate(0,0)"/>
<path d="" fill="#F7F7F7" transform="translate(0,0)"/>
<path d="" fill="#F7F7F7" transform="translate(0,0)"/>
<path d="" fill="#F7F7F7" transform="translate(0,0)"/>
<path d="" fill="#000000" transform="translate(0,0)"/>
<path d="" fill="#F7F7F7" transform="translate(0,0)"/>
<path d="" fill="#F7F7F7" transform="translate(0,0)"/>
<path d="" fill="#F7F7F7" transform="translate(0,0)"/>
<path d="" fill="#F7F7F7" transform="translate(0,0)"/>
<path d="" fill="#F7F7F7" transform="translate(0,0)"/>
<path d="" fill="#F7F7F7" transform="translate(0,0)"/>
<path d="" fill="#F7F7F7" transform="translate(0,0)"/>
<path d="" fill="#F7F7F7" transform="translate(0,0)"/>
<path d="" fill="#F7F7F7" transform="translate(0,0)"/>
<path d="" fill="#F7F7F7" transform="translate(0,0)"/>
<path d="" fill="#F7F7F7" transform="translate(0,0)"/>
<path d="" fill="#F7F7F7" transform="translate(0,0)"/>
<path d="" fill="#F7F7F7" transform="translate(0,0)"/>
<path d="" fill="#F7F7F7" transform="translate(0,0)"/>
<path d="" fill="#000000" transform="translate(0,0)"/>
<path d="" fill="#F7F7F7" transform="translate(0,0)"/>
</svg>